<svg xmlns="http://www.w3.org/2000/svg" version="1.1" xmlns:xlink="http://www.w3.org/1999/xlink" xmlns:svgjs="http://svgjs.dev/svgjs" width="500" height="500"><svg id="SvgjsSvg1123" xmlns="http://www.w3.org/2000/svg" version="1.1" viewBox="0 0 500 500">
  <!-- Generator: Adobe Illustrator 29.4.0, SVG Export Plug-In . SVG Version: 2.1.0 Build 152)  -->
  <defs>
    <style>
      .st0 {
        fill: #06104d;
      }

      .st0, .st1 {
        isolation: isolate;
      }

      .st1 {
        fill: #f4c8bf;
      }
    </style>
  </defs>
  <path class="st1" d="M113.9,432.6s16.3-73,26.7-95.8c10.4-22.8,4.6-14.8,4.6-14.8,0,0-58.2-11.7-63.7-46-5.5-34.3,22.8-44.9,22.8-44.9l70.1-33.5,35.6-40.9,141.3,47.5s-13.8,178.2-54.9,205.9c-41.1,27.7-41.8,22.8-41.8,22.8l-62.5,44.9-78.3-45.3Z"></path>
  <path id="SvgjsPath1122" class="st0" d="M157.2,330.7c82,80.8,138.2,70.8,149.4,67.6.8-.2,1.4.6,1,1.3l-13.7,25c-2.8,5.1-8.1,8.5-13.9,9-78,6.5-128-61.7-144.3-88.2-3.7-6-4-13.5-.7-19.8,54.9-105.9-39.5-94-39.5-94C1.7,42.8,171.1,68.2,171.1,68.2c0,0,37.7-79,126.2-16.3,18.1,12.8,33.7,28.9,46.6,46.9,89.6,124.5,103.3,90.1,103.3,90.1,0,0-29.8,82.8-156.1,27.3-27.2-8.2-17,11.2-17,11.2,0,0-31.8,19.1-71.3-51-.2-.3-.6-.3-.8,0l-27.7,46.3c-5.1,8.6-7.6,18.4-7.1,28.3,1.1,20.7,1.2,58.2-10.1,79.7Z"></path>
</svg><style>@media (prefers-color-scheme: light) { :root { filter: none; } }
@media (prefers-color-scheme: dark) { :root { filter: none; } }
</style></svg>