<svg xmlns="http://www.w3.org/2000/svg" viewBox="0 0 279.74 74.51"><path fill="#f4c8bf" d="M11.73 63.31s2.35-10.51 3.85-13.79.67-2.13.67-2.13-8.38-1.69-9.17-6.62 3.28-6.46 3.28-6.46l10.09-4.82 5.13-5.89 20.35 6.84s-1.99 25.66-7.9 29.65C32.12 64.08 32 63.38 32 63.38l-9 6.46-11.27-6.52Z" style="isolation:isolate"/><path fill="#06104d" d="M17.96 48.63c11.81 11.64 19.9 10.19 21.52 9.74.11-.03.2.09.14.19l-1.97 3.6a2.52 2.52 0 0 1-2.01 1.29c-11.23.93-18.43-8.89-20.79-12.7a2.9 2.9 0 0 1-.1-2.85c7.91-15.25-5.68-13.53-5.68-13.53-13.5-27.2 10.89-23.54 10.89-23.54S25.39-.55 38.14 8.49a29.1 29.1 0 0 1 6.72 6.75c12.9 17.93 14.88 12.98 14.88 12.98s-4.3 11.92-22.48 3.93c-3.92-1.18-2.45 1.62-2.45 1.62s-4.59 2.75-10.26-7.35c-.02-.04-.09-.05-.11 0l-3.99 6.67a7.14 7.14 0 0 0-1.02 4.08c.16 2.97.17 8.39-1.46 11.48Z" style="isolation:isolate"/><g fill="#06104d" style="isolation:isolate"><path d="m80.56 40.77-4.53-8.21h-1.27v8.21h-5.3V19.01h8.9c1.72 0 3.18.3 4.39.9s2.11 1.42 2.71 2.46c.6 1.04.9 2.21.9 3.49 0 1.45-.41 2.74-1.22 3.88a6.61 6.61 0 0 1-3.61 2.42l5.02 8.62h-5.98Zm-5.8-11.96h3.29c.97 0 1.7-.24 2.19-.71.49-.48.73-1.15.73-2.01s-.24-1.48-.73-1.95c-.49-.48-1.21-.71-2.19-.71h-3.29v5.39ZM97.44 39.57c-1.71-.95-3.06-2.28-4.06-3.98s-1.5-3.62-1.5-5.75.5-4.04 1.5-5.74c1-1.69 2.36-3.02 4.06-3.97 1.71-.95 3.58-1.43 5.63-1.43s3.92.48 5.63 1.43 3.05 2.27 4.03 3.97c.98 1.69 1.47 3.61 1.47 5.74s-.5 4.05-1.49 5.75-2.34 3.03-4.03 3.98c-1.69.95-3.57 1.43-5.61 1.43s-3.92-.48-5.63-1.43Zm9.79-5.15c1.04-1.16 1.57-2.69 1.57-4.59s-.52-3.46-1.57-4.6-2.43-1.72-4.17-1.72-3.16.57-4.2 1.71c-1.04 1.14-1.57 2.68-1.57 4.62s.52 3.46 1.57 4.6c1.04 1.15 2.44 1.72 4.2 1.72s3.13-.58 4.17-1.74ZM144.88 19.01v21.76h-5.3V27.72l-4.87 13.05h-4.28l-4.9-13.08v13.08h-5.3V19.01h6.26l6.11 15.07 6.04-15.07h6.23ZM157.1 23.26v4.4h7.1v4.09h-7.1v4.77h8.03v4.25H151.8V19.01h13.33v4.25h-8.03Zm4.83-8.62-7.47 3.13v-3.66l7.47-3.6v4.12ZM176.33 39.57c-1.71-.95-3.06-2.28-4.06-3.98s-1.5-3.62-1.5-5.75.5-4.04 1.5-5.74c1-1.69 2.36-3.02 4.06-3.97 1.71-.95 3.58-1.43 5.63-1.43s3.92.48 5.63 1.43 3.05 2.27 4.03 3.97c.98 1.69 1.47 3.61 1.47 5.74s-.5 4.05-1.49 5.75-2.34 3.03-4.03 3.98c-1.69.95-3.57 1.43-5.61 1.43s-3.92-.48-5.63-1.43Zm9.8-5.15c1.04-1.16 1.57-2.69 1.57-4.59s-.52-3.46-1.57-4.6-2.43-1.72-4.17-1.72-3.16.57-4.2 1.71c-1.04 1.14-1.57 2.68-1.57 4.62s.52 3.46 1.57 4.6c1.04 1.15 2.44 1.72 4.2 1.72s3.13-.58 4.17-1.74Z"/></g><path fill="#06104d" d="M70.66 54.99v5.49c0 .45.1.77.29.96s.53.28 1 .28h1.14v1.31H71.7c-.86 0-1.51-.2-1.94-.6-.43-.4-.65-1.05-.65-1.95v-5.49H67.9v-1.27h1.21v-2.35h1.55v2.35h2.43v1.27h-2.43ZM76.66 62.59c-.71-.4-1.26-.96-1.67-1.69s-.6-1.58-.6-2.54.21-1.79.62-2.52c.41-.73.98-1.29 1.69-1.68.71-.39 1.51-.59 2.4-.59s1.68.2 2.4.59a4.3 4.3 0 0 1 1.69 1.67c.41.73.62 1.57.62 2.53s-.21 1.81-.64 2.54c-.43.73-1 1.29-1.73 1.69-.73.4-1.53.59-2.41.59s-1.66-.2-2.37-.59Zm3.93-1.16c.49-.26.88-.65 1.18-1.17.3-.52.45-1.16.45-1.9s-.15-1.38-.44-1.9a2.82 2.82 0 0 0-1.16-1.16 3.33 3.33 0 0 0-3.11 0c-.47.26-.85.64-1.13 1.16-.28.52-.42 1.16-.42 1.9s.14 1.4.42 1.92c.28.52.65.91 1.11 1.16.46.25.97.38 1.53.38s1.08-.13 1.56-.39ZM93.14 54.57c.7.69 1.05 1.67 1.05 2.97v5.49h-1.53v-5.27c0-.93-.23-1.64-.7-2.13-.46-.49-1.1-.74-1.9-.74s-1.46.25-1.95.77c-.48.51-.72 1.25-.72 2.23v5.15h-1.55v-9.32h1.55v1.33c.31-.48.72-.84 1.25-1.1a3.9 3.9 0 0 1 1.74-.39c1.13 0 2.05.34 2.75 1.03ZM101.26 55.83a4.33 4.33 0 0 1 3.84-2.27c.82 0 1.52.18 2.12.53s1.05.79 1.34 1.33v-1.7h1.56v9.32h-1.56v-1.73a3.7 3.7 0 0 1-1.37 1.35c-.61.36-1.31.54-2.12.54a4.21 4.21 0 0 1-3.82-2.33c-.39-.74-.58-1.58-.58-2.52s.19-1.79.58-2.51Zm6.89.69a3.02 3.02 0 0 0-2.74-1.62c-.58 0-1.1.14-1.58.41-.48.27-.86.67-1.14 1.19s-.42 1.13-.42 1.84.14 1.33.42 1.86a2.96 2.96 0 0 0 2.72 1.63 3.05 3.05 0 0 0 2.74-1.63c.29-.53.43-1.14.43-1.84s-.14-1.31-.43-1.84ZM114.13 62.82a3.16 3.16 0 0 1-1.34-1.02 2.68 2.68 0 0 1-.54-1.5h1.6c.05.46.26.84.65 1.14.39.29.9.44 1.54.44.59 0 1.05-.13 1.39-.39.34-.26.51-.59.51-.99s-.18-.71-.54-.91a7.8 7.8 0 0 0-1.68-.59c-.69-.18-1.26-.37-1.69-.55a2.96 2.96 0 0 1-1.12-.83 2.18 2.18 0 0 1-.47-1.45c0-.48.14-.91.43-1.31.28-.4.69-.71 1.21-.94a4.38 4.38 0 0 1 1.78-.35c1.03 0 1.86.26 2.5.78.63.52.97 1.24 1.02 2.14h-1.55a1.56 1.56 0 0 0-.59-1.17 2.23 2.23 0 0 0-1.44-.44c-.56 0-1 .12-1.33.36a1.1 1.1 0 0 0-.49.94c0 .31.1.56.3.76.2.2.45.36.75.48s.72.25 1.25.4c.67.18 1.21.36 1.63.54.42.18.78.44 1.08.79a2.4 2.4 0 0 1 .05 2.76c-.28.41-.68.73-1.2.96-.52.23-1.11.35-1.78.35-.71 0-1.35-.12-1.92-.37ZM123.01 62.82a3.16 3.16 0 0 1-1.34-1.02 2.68 2.68 0 0 1-.54-1.5h1.6c.05.46.26.84.65 1.14.39.29.9.44 1.54.44.59 0 1.05-.13 1.39-.39.34-.26.51-.59.51-.99s-.18-.71-.54-.91a7.8 7.8 0 0 0-1.68-.59c-.69-.18-1.26-.37-1.69-.55a2.96 2.96 0 0 1-1.12-.83 2.18 2.18 0 0 1-.47-1.45c0-.48.14-.91.43-1.31.28-.4.69-.71 1.21-.94a4.38 4.38 0 0 1 1.78-.35c1.03 0 1.86.26 2.5.78.63.52.97 1.24 1.02 2.14h-1.55a1.56 1.56 0 0 0-.59-1.17 2.23 2.23 0 0 0-1.44-.44c-.56 0-1 .12-1.33.36a1.1 1.1 0 0 0-.49.94c0 .31.1.56.3.76.2.2.45.36.75.48s.72.25 1.25.4c.67.18 1.21.36 1.63.54.42.18.78.44 1.08.79a2.4 2.4 0 0 1 .05 2.76c-.28.41-.68.73-1.2.96-.52.23-1.11.35-1.78.35-.71 0-1.35-.12-1.92-.37ZM130.56 51.89c-.2-.2-.31-.45-.31-.75s.1-.54.31-.75.45-.31.75-.31.52.1.72.31c.2.2.3.45.3.75s-.1.54-.3.75c-.2.2-.44.31-.72.31s-.54-.1-.75-.31Zm1.49 1.82v9.32h-1.55v-9.32h1.55ZM136.06 62.82a3.16 3.16 0 0 1-1.34-1.02 2.68 2.68 0 0 1-.54-1.5h1.6c.05.46.26.84.65 1.14.39.29.9.44 1.54.44.59 0 1.05-.13 1.39-.39.34-.26.51-.59.51-.99s-.18-.71-.54-.91a7.8 7.8 0 0 0-1.68-.59c-.69-.18-1.26-.37-1.69-.55a2.96 2.96 0 0 1-1.12-.83 2.18 2.18 0 0 1-.47-1.45c0-.48.14-.91.43-1.31.28-.4.69-.71 1.21-.94a4.38 4.38 0 0 1 1.78-.35c1.03 0 1.86.26 2.5.78.63.52.97 1.24 1.02 2.14h-1.55a1.56 1.56 0 0 0-.59-1.17 2.23 2.23 0 0 0-1.44-.44c-.56 0-1 .12-1.33.36a1.1 1.1 0 0 0-.49.94c0 .31.1.56.3.76.2.2.45.36.75.48s.72.25 1.25.4c.67.18 1.21.36 1.63.54.42.18.78.44 1.08.79a2.4 2.4 0 0 1 .05 2.76c-.28.41-.68.73-1.2.96-.52.23-1.11.35-1.78.35-.71 0-1.35-.12-1.92-.37ZM145.45 54.99v5.49c0 .45.1.77.29.96s.53.28 1 .28h1.14v1.31h-1.39c-.86 0-1.51-.2-1.94-.6-.43-.4-.65-1.05-.65-1.95v-5.49h-1.21v-1.27h1.21v-2.35h1.55v2.35h2.43v1.27h-2.43ZM149.75 55.83a4.33 4.33 0 0 1 3.84-2.27c.82 0 1.52.18 2.12.53s1.05.79 1.34 1.33v-1.7h1.56v9.32h-1.56v-1.73a3.7 3.7 0 0 1-1.37 1.35c-.61.36-1.31.54-2.12.54a4.21 4.21 0 0 1-3.82-2.33c-.39-.74-.58-1.58-.58-2.52s.19-1.79.58-2.51Zm6.88.69a3.02 3.02 0 0 0-2.74-1.62c-.58 0-1.1.14-1.58.41-.48.27-.86.67-1.14 1.19s-.42 1.13-.42 1.84.14 1.33.42 1.86a2.96 2.96 0 0 0 2.72 1.63 3.05 3.05 0 0 0 2.74-1.63c.29-.53.43-1.14.43-1.84s-.14-1.31-.43-1.84ZM168.53 54.57c.7.69 1.05 1.67 1.05 2.97v5.49h-1.53v-5.27c0-.93-.23-1.64-.7-2.13-.46-.49-1.1-.74-1.9-.74s-1.46.25-1.95.77c-.48.51-.72 1.25-.72 2.23v5.15h-1.55v-9.32h1.55v1.33c.31-.48.72-.84 1.25-1.1a3.9 3.9 0 0 1 1.74-.39c1.13 0 2.05.34 2.75 1.03ZM174.01 54.99v5.49c0 .45.1.77.29.96s.53.28 1 .28h1.14v1.31h-1.39c-.86 0-1.51-.2-1.94-.6-.43-.4-.65-1.05-.65-1.95v-5.49h-1.21v-1.27h1.21v-2.35h1.55v2.35h2.43v1.27h-2.43ZM186.64 54.99h-1.96v8.04h-1.55v-8.04h-1.21v-1.27h1.21v-.66c0-1.04.27-1.8.81-2.29.54-.48 1.4-.72 2.59-.72v1.29c-.68 0-1.16.13-1.44.4s-.42.71-.42 1.32v.66h1.96v1.27ZM188.44 55.83a4.33 4.33 0 0 1 3.84-2.27c.82 0 1.52.18 2.12.53s1.05.79 1.34 1.33v-1.7h1.56v9.32h-1.56v-1.73a3.7 3.7 0 0 1-1.37 1.35c-.61.36-1.31.54-2.12.54a4.21 4.21 0 0 1-3.82-2.33c-.39-.74-.58-1.58-.58-2.52s.19-1.79.58-2.51Zm6.88.69a3.02 3.02 0 0 0-2.74-1.62c-.58 0-1.1.14-1.58.41-.48.27-.86.67-1.14 1.19s-.42 1.13-.42 1.84.14 1.33.42 1.86a2.96 2.96 0 0 0 2.72 1.63 3.05 3.05 0 0 0 2.74-1.63c.29-.53.43-1.14.43-1.84s-.14-1.31-.43-1.84ZM199.93 55.83c.39-.72.92-1.28 1.61-1.67a4.6 4.6 0 0 1 2.35-.6c1.14 0 2.09.28 2.83.83a3.98 3.98 0 0 1 1.47 2.31h-1.67c-.16-.57-.47-1.01-.93-1.34s-1.03-.49-1.71-.49c-.88 0-1.6.3-2.14.91-.54.61-.82 1.46-.82 2.58s.27 1.99.82 2.6c.54.61 1.26.92 2.14.92.68 0 1.25-.16 1.7-.48.45-.32.76-.77.93-1.36h1.67a4.14 4.14 0 0 1-4.31 3.15c-.88 0-1.67-.2-2.35-.59a4.2 4.2 0 0 1-1.61-1.68c-.39-.73-.58-1.58-.58-2.55s.19-1.8.58-2.52ZM212.14 54.99v5.49c0 .45.1.77.29.96s.53.28 1 .28h1.14v1.31h-1.39c-.86 0-1.51-.2-1.94-.6-.43-.4-.65-1.05-.65-1.95v-5.49h-1.21v-1.27h1.21v-2.35h1.55v2.35h2.43v1.27h-2.43ZM224.7 53.71v9.32h-1.55v-1.38c-.29.48-.71.85-1.23 1.11s-1.11.4-1.74.4c-.73 0-1.38-.15-1.95-.45a3.3 3.3 0 0 1-1.37-1.35c-.33-.6-.5-1.33-.5-2.19v-5.46h1.53v5.25c0 .92.23 1.62.7 2.12.46.49 1.1.74 1.9.74s1.48-.25 1.96-.77c.48-.51.71-1.25.71-2.23V53.7h1.55ZM230.03 53.99c.5-.29 1.12-.44 1.84-.44v1.6h-.41c-1.73 0-2.6.94-2.6 2.82v5.07h-1.55v-9.32h1.55v1.51c.27-.53.66-.95 1.16-1.24ZM233.66 55.83a4.33 4.33 0 0 1 3.84-2.27c.82 0 1.52.18 2.12.53s1.05.79 1.34 1.33v-1.7h1.56v9.32h-1.56v-1.73a3.7 3.7 0 0 1-1.37 1.35c-.61.36-1.31.54-2.12.54a4.21 4.21 0 0 1-3.82-2.33c-.39-.74-.58-1.58-.58-2.52s.19-1.79.58-2.51Zm6.88.69a3.02 3.02 0 0 0-2.74-1.62c-.58 0-1.1.14-1.58.41-.48.27-.86.67-1.14 1.19s-.42 1.13-.42 1.84.14 1.33.42 1.86a2.96 2.96 0 0 0 2.72 1.63 3.05 3.05 0 0 0 2.74-1.63c.29-.53.43-1.14.43-1.84s-.14-1.31-.43-1.84ZM247.04 54.99v5.49c0 .45.1.77.29.96s.53.28 1 .28h1.14v1.31h-1.39c-.86 0-1.51-.2-1.94-.6-.43-.4-.65-1.05-.65-1.95v-5.49h-1.21v-1.27h1.21v-2.35h1.55v2.35h2.43v1.27h-2.43ZM251.39 51.89c-.2-.2-.31-.45-.31-.75s.1-.54.31-.75.45-.31.75-.31.52.1.72.31c.2.2.3.45.3.75s-.1.54-.3.75c-.2.2-.44.31-.72.31s-.54-.1-.75-.31Zm1.5 1.82v9.32h-1.55v-9.32h1.55ZM257.21 62.59c-.71-.4-1.26-.96-1.67-1.69s-.6-1.58-.6-2.54.21-1.79.62-2.52c.41-.73.98-1.29 1.69-1.68.71-.39 1.51-.59 2.4-.59s1.68.2 2.4.59a4.3 4.3 0 0 1 1.69 1.67c.41.73.62 1.57.62 2.53s-.21 1.81-.64 2.54c-.43.73-1 1.29-1.73 1.69-.73.4-1.53.59-2.41.59s-1.66-.2-2.37-.59Zm3.94-1.16c.49-.26.88-.65 1.18-1.17.3-.52.45-1.16.45-1.9s-.15-1.38-.44-1.9a2.82 2.82 0 0 0-1.16-1.16 3.33 3.33 0 0 0-3.11 0c-.47.26-.85.64-1.13 1.16-.28.52-.42 1.16-.42 1.9s.14 1.4.42 1.92c.28.52.65.91 1.11 1.16.46.25.97.38 1.53.38s1.08-.13 1.56-.39ZM273.69 54.57c.7.69 1.05 1.67 1.05 2.97v5.49h-1.53v-5.27c0-.93-.23-1.64-.7-2.13-.46-.49-1.1-.74-1.9-.74s-1.46.25-1.95.77c-.48.51-.72 1.25-.72 2.23v5.15h-1.55v-9.32h1.55v1.33c.31-.48.72-.84 1.25-1.1a3.9 3.9 0 0 1 1.74-.39c1.13 0 2.05.34 2.75 1.03Z" opacity=".99"/></svg>