<svg xmlns="http://www.w3.org/2000/svg" viewBox="0 0 105.349 179.463"><defs><clipPath id="a"><path fill="none" d="M0 0h28.665v40.848H0z"/></clipPath><clipPath id="b"><path fill="none" d="M0 0h59.779v40.461H0z"/></clipPath><clipPath id="c"><path fill="none" d="M0 0h38.744v101.977H0z"/></clipPath><clipPath id="d"><path fill="none" d="M0 0h11.561v93.142H0z"/></clipPath><clipPath id="e"><path fill="none" d="M0 0h18.275v57.634H0z"/></clipPath><clipPath id="f"><path fill="none" d="M0 0h16.628v57.99H0z"/></clipPath><clipPath id="g"><path fill="none" d="M0 0h14.33v48.748H0z"/></clipPath><clipPath id="h"><path fill="none" d="M0 0h38.019v42.204H0z"/></clipPath><clipPath id="i"><path fill="none" d="m.006 1.31 4.545 45.637a1.188 1.188 0 0 0 .453.82l22.939 17.84a1.185 1.185 0 0 0 1.023.214l32.13-8.2a1.188 1.188 0 0 0 .888-1.267L57.208 7.922A1.187 1.187 0 0 0 55.687 6.9l-31.725 9.449a1.186 1.186 0 0 1-1.056-.191L1.906.249a1.172 1.172 0 0 0-.712-.244A1.19 1.19 0 0 0 .007 1.314"/></clipPath></defs><g clip-path="url(#a)" style="isolation:isolate" transform="translate(28.88 12.855)"><path fill="#f4c8bf" d="M0 7.162s4.338 17.926 8.977 20.071 4.639 1.636 4.639 1.636l-2.15 9.108 5.733 2.867 9.316-.717 1.433-13.612s-2.867-7.166-4.3-9.316-.717-1.433-.717-1.433 5.733-2.15 5.733-5.733a4.056 4.056 0 0 0-3.059-4.2l-7.691-2.255-4.3-3.583Z"/></g><g clip-path="url(#b)" style="isolation:isolate" transform="translate(18.928 139.003)"><path fill="#03358a" d="m59.779 40.461-27.2-.287-4.672-17.135a.566.566 0 0 0-1.111.15v16.927l-21.807-.237L.008.637a.569.569 0 0 1 .58-.638l54.858 2.007a.558.558 0 0 1 .545.509Z"/></g><g clip-path="url(#c)" style="isolation:isolate" transform="translate(18.847 42.94)"><path fill="#fff" d="M23.648.014s-5.639 12.183 15.1 6.45l-2.738 95.417S15.049 103.21 0 96.043l10.048-56.328 8.841-33.252S21.142-.345 23.65.013"/></g><g clip-path="url(#d)" style="isolation:isolate" transform="translate(35.327 50.803)"><path fill="#303b8b" d="M.894 93.142C-3.725 68.935 11.061.686 11.211 0l.35.076c-.15.686-14.92 68.864-10.315 93Z"/></g><path fill="#303b8b" d="M104.842 103.15c-.53-7.446-11.6-31.073-17.285-42.761a19.763 19.763 0 0 0-10.047-9.56l-18.532-7.876-8.241 38.34c-5.167 18.6-1.19 46.6 2.15 65.93 1.2 6.98 2.974 21.327 10.033 20.782l19.048-1.268a2 2 0 0 0 1.784-2.53 414.654 414.654 0 0 1-9.431-40.511c-1.534 1.512-4.393 3.963-7.059 4.271-3.734.423-3.024-1.333-2.96-1.476-.115.107-2.508 2.422-4.608 1.025-2.15-1.433.717-3.583.717-3.583a2.083 2.083 0 0 1-1.878-.81 1.779 1.779 0 0 1 .788-2.551c2.071-.982 6.321-3.089 4.672-3.089-1.211 0-1.512-.917-1.548-1.713a1.645 1.645 0 0 1 .982-1.548l7.016-3.189 2.021.165c4.866 3.841 6.4 7.109 6.679 9.459l-2.25 1.125a2.842 2.842 0 0 0 1.706.43.73.73 0 0 0 .516-.523c.208-.014.423-.029.645-.05 6.471-.559 16.9-2.687 22.065-5.167a6.242 6.242 0 0 0 3.511-6.012c-.108-1.691-.258-4.049-.495-7.31M82.79 98.592l-.322 3.64a4.048 4.048 0 0 1-2.308 3.318l-7.919 3.726c-2.329-21.348.709-27.984.709-27.984l8.779 13.172a6.479 6.479 0 0 1 1.061 4.128"/><path fill="#303b8b" d="M78.599 122.212a.73.73 0 0 0 .516-.523c.208-.014.423-.029.645-.05M35.329 49.403l-11.95 6.573a7.068 7.068 0 0 0-3.275 3.882c-2.593 7.494-9.983 29-10.573 32.543-.717 4.3 17.2 1.433 17.2 1.433Z"/><g clip-path="url(#e)" style="isolation:isolate" transform="translate(45.719 39.01)"><path fill="#cadcf4" d="M10.75.002c5.548-.226 7.525 18.274 7.525 18.274l-3.941 1.789-.358 3.48-4.3 4.666-1.433 28.76s-8.349 1.7-8.241-.358C.719 42.997 5.735 17.199 10.751 0"/></g><g clip-path="url(#f)" style="isolation:isolate" transform="translate(25.868 38.653)"><path fill="#cadcf4" d="m0 57.99 3.011-32.908 5.016-2.867-6.45-5.733L16.626 0v4.3s-3.941 3.941-5.733 20.066c0 0-2.8 22.461-10.894 33.625"/></g><g clip-path="url(#g)" style="isolation:isolate" transform="translate(12.365 117.465)"><path fill="#303b8b" d="M10.054 5.622S.167 24.874 0 46.059a2.676 2.676 0 0 0 2.679 2.689h4.967a3.539 3.539 0 0 0 3.54-3.679c-.307-7.62-.648-25.424 2.1-37.527 3.583-15.766-3.236-1.92-3.236-1.92"/></g><g clip-path="url(#h)" style="isolation:isolate" transform="translate(18.847)"><path fill="#06104d" d="M31.89 29.7c-7.028 9.583-12.916 9.484-14.111 9.349a.092.092 0 0 0-.08.148l1.805 2.321a1.806 1.806 0 0 0 1.567.684c8.051-.622 12.024-8.393 13.255-11.361a2.072 2.072 0 0 0-.253-2.027c-7.338-9.884 2.475-10.222 2.475-10.222C42.998-2.194 26.157 3.18 26.157 3.18s-5.142-7.427-13.129.419a20.751 20.751 0 0 0-3.98 5.542C1.971 23.303.002 20.022.002 20.022s4.4 7.943 16.354.209c2.636-1.284 1.92.866 1.92.866s3.559 1.424 6.421-6.372a.048.048 0 0 1 .081-.016l3.582 4.26a5.17 5.17 0 0 1 1.19 2.771c.23 2.122.838 5.952 2.342 7.956"/></g><g clip-path="url(#i)" transform="translate(4.777 75.167)"><path fill="#f2f2f2" d="m.007 1.31 4.545 45.637a1.19 1.19 0 0 0 .452.821l22.939 17.84a1.187 1.187 0 0 0 1.023.214l32.13-8.2a1.188 1.188 0 0 0 .888-1.268L57.209 7.922A1.188 1.188 0 0 0 55.688 6.9l-31.724 9.45a1.188 1.188 0 0 1-1.057-.192L1.907.249a1.188 1.188 0 0 0-1.9 1.065"/><path d="m30.994 98.254-11.9-130.478 42.9 39.483 3.318 58.6Z" opacity=".05"/></g><path fill="#f4c8bf" d="M209.055 155.1c5.045 3.977 6.507 7.345 6.708 9.71l-.129.158-3.584 1.432s-.43.5-1.139 1.2c-1.534 1.512-4.393 3.963-7.059 4.271-3.734.423-3.024-1.333-2.96-1.476-.115.107-2.508 2.422-4.608 1.025-2.15-1.433.717-3.583.717-3.583a2.083 2.083 0 0 1-1.878-.81 1.779 1.779 0 0 1 .788-2.551c2.071-.982 6.321-3.089 4.672-3.089-1.211 0-1.512-.917-1.548-1.713a1.645 1.645 0 0 1 .982-1.548l7.016-3.189" style="isolation:isolate" transform="translate(-136.59 -43.905)"/><path fill="#f4c8bf" d="M7.38 101.717a5.546 5.546 0 0 1 2.15.717c1.433.717 6.45 6.45 6.45 6.45a2.106 2.106 0 0 1-2.15 2.15c-1.678 0 2.319 2.619 4.154 3.769a1.63 1.63 0 0 1 .745 1.683c-.153.8-.5 1.715-1.316 1.715 0 0-.717 3.583-2.867 2.867a8.063 8.063 0 0 1-3.583-2.867s0 2.15-.717 2.15-5.733-.717-10.033-6.45c0 0-2.15-3.583 7.166-12.183"/></svg>